<svg width="66" height="24" viewBox="0 0 66 24" fill="none" xmlns="http://www.w3.org/2000/svg">
<rect width="66" height="24" rx="4" fill="#83D017" fill-opacity="0.16"/>
<path d="M18.92 7.98H20.192L23.504 16.5H22.088L21.188 14.184H17.9L17.012 16.5H15.584L18.92 7.98ZM20.924 13.188L19.556 9.456L18.14 13.188H20.924ZM27.2862 16.62C26.7982 16.62 26.3542 16.536 25.9542 16.368C25.5622 16.192 25.2222 15.952 24.9342 15.648C24.6462 15.344 24.4222 14.996 24.2622 14.604C24.1102 14.212 24.0342 13.796 24.0342 13.356C24.0342 12.764 24.1662 12.224 24.4302 11.736C24.7022 11.248 25.0782 10.856 25.5582 10.56C26.0462 10.264 26.6222 10.116 27.2862 10.116C27.9262 10.116 28.4822 10.26 28.9542 10.548C29.4342 10.828 29.7862 11.204 30.0102 11.676L28.7262 12.084C28.5822 11.82 28.3782 11.616 28.1142 11.472C27.8582 11.32 27.5742 11.244 27.2622 11.244C26.9102 11.244 26.5902 11.336 26.3022 11.52C26.0222 11.696 25.7982 11.944 25.6302 12.264C25.4702 12.576 25.3902 12.94 25.3902 13.356C25.3902 13.756 25.4742 14.12 25.6422 14.448C25.8102 14.768 26.0342 15.024 26.3142 15.216C26.6022 15.4 26.9222 15.492 27.2742 15.492C27.4902 15.492 27.6982 15.456 27.8982 15.384C28.1062 15.304 28.2862 15.2 28.4382 15.072C28.5902 14.936 28.6982 14.788 28.7622 14.628L30.0582 15.012C29.9222 15.324 29.7182 15.6 29.4462 15.84C29.1822 16.08 28.8662 16.272 28.4982 16.416C28.1382 16.552 27.7342 16.62 27.2862 16.62ZM34.8773 16.176C34.7653 16.232 34.6253 16.292 34.4573 16.356C34.2893 16.42 34.0973 16.476 33.8813 16.524C33.6733 16.572 33.4573 16.596 33.2333 16.596C32.9613 16.596 32.7093 16.548 32.4773 16.452C32.2453 16.356 32.0573 16.204 31.9133 15.996C31.7773 15.78 31.7093 15.504 31.7093 15.168V11.244H30.8813V10.224H31.7093V8.16H33.0293V10.224H34.3973V11.244H33.0293V14.748C33.0453 14.964 33.1133 15.124 33.2333 15.228C33.3613 15.332 33.5173 15.384 33.7013 15.384C33.8853 15.384 34.0613 15.352 34.2293 15.288C34.3973 15.224 34.5213 15.172 34.6013 15.132L34.8773 16.176ZM36.0315 16.5V10.224H37.3515V16.5H36.0315ZM36.0315 9.192V7.74H37.3515V9.192H36.0315ZM40.9298 16.5L38.5418 10.224H39.9098L41.6978 15.276L43.4858 10.224H44.7578L42.3698 16.5H40.9298ZM48.5782 16.62C48.0902 16.62 47.6462 16.536 47.2462 16.368C46.8542 16.192 46.5142 15.956 46.2262 15.66C45.9382 15.356 45.7142 15.012 45.5542 14.628C45.4022 14.236 45.3262 13.82 45.3262 13.38C45.3262 12.788 45.4622 12.248 45.7342 11.76C46.0062 11.264 46.3862 10.868 46.8742 10.572C47.3622 10.268 47.9342 10.116 48.5902 10.116C49.2462 10.116 49.8102 10.268 50.2822 10.572C50.7622 10.868 51.1342 11.26 51.3982 11.748C51.6622 12.236 51.7942 12.76 51.7942 13.32C51.7942 13.416 51.7902 13.508 51.7822 13.596C51.7742 13.676 51.7662 13.744 51.7582 13.8H46.7302C46.7542 14.168 46.8542 14.492 47.0302 14.772C47.2142 15.044 47.4462 15.26 47.7262 15.42C48.0062 15.572 48.3062 15.648 48.6262 15.648C48.9782 15.648 49.3102 15.56 49.6222 15.384C49.9422 15.208 50.1582 14.976 50.2702 14.688L51.3982 15.012C51.2622 15.316 51.0542 15.592 50.7742 15.84C50.5022 16.08 50.1782 16.272 49.8022 16.416C49.4262 16.552 49.0182 16.62 48.5782 16.62ZM46.6942 12.924H50.4862C50.4622 12.564 50.3582 12.248 50.1742 11.976C49.9982 11.696 49.7702 11.48 49.4902 11.328C49.2182 11.168 48.9142 11.088 48.5782 11.088C48.2502 11.088 47.9462 11.168 47.6662 11.328C47.3942 11.48 47.1702 11.696 46.9942 11.976C46.8182 12.248 46.7182 12.564 46.6942 12.924Z" fill="#27AE60"/>
</svg>
