<svg width="25" height="24" viewBox="0 0 25 24" fill="none" xmlns="http://www.w3.org/2000/svg">
<path d="M3.1875 6.25C3.1875 5.38805 3.52991 4.5614 4.1394 3.9519C4.7489 3.34241 5.57555 3 6.4375 3H17.9375C18.7995 3 19.6261 3.34241 20.2356 3.9519C20.8451 4.5614 21.1875 5.38805 21.1875 6.25V17.75C21.1875 18.612 20.8451 19.4386 20.2356 20.0481C19.6261 20.6576 18.7995 21 17.9375 21H6.4375C5.57555 21 4.7489 20.6576 4.1394 20.0481C3.52991 19.4386 3.1875 18.612 3.1875 17.75V6.25ZM6.4375 4.5C5.97337 4.5 5.52825 4.68437 5.20006 5.01256C4.87187 5.34075 4.6875 5.78587 4.6875 6.25V17.75C4.6875 18.716 5.4715 19.5 6.4375 19.5H9.1875V4.5H6.4375ZM10.6875 4.5V14H19.6875V6.25C19.6875 5.78587 19.5031 5.34075 19.1749 5.01256C18.8467 4.68437 18.4016 4.5 17.9375 4.5H10.6875ZM19.6875 15.5H10.6875V19.5H17.9375C18.4016 19.5 18.8467 19.3156 19.1749 18.9874C19.5031 18.6592 19.6875 18.2141 19.6875 17.75V15.5Z" fill="#464646"/>
</svg>
