<svg width="48" height="48" viewBox="0 0 48 48" fill="none" xmlns="http://www.w3.org/2000/svg">
<path d="M12.174 15.5001C12.6474 12.8405 14.0416 10.4322 16.1125 8.69744C18.1833 6.96266 20.7986 6.01196 23.5 6.01196C26.2014 6.01196 28.8167 6.96266 30.8875 8.69744C32.9584 10.4322 34.3526 12.8405 34.826 15.5001H35C36.1439 15.5 37.2745 15.7452 38.3156 16.2193C39.3566 16.6933 40.2839 17.385 41.0349 18.2478C41.7859 19.1107 42.3432 20.1245 42.669 21.221C42.9949 22.3175 43.0819 23.4711 42.924 24.6041C42.0134 23.5285 40.9348 22.6072 39.73 21.8761C39.3913 20.8909 38.7535 20.036 37.9055 19.4307C37.0576 18.8255 36.0418 18.5002 35 18.5001H33.488C33.1027 18.5006 32.7319 18.3527 32.4527 18.0872C32.1734 17.8217 32.007 17.459 31.988 17.0741C31.8772 14.8974 30.9344 12.8465 29.3546 11.345C27.7747 9.8436 25.6785 9.00639 23.499 9.00639C21.3195 9.00639 19.2233 9.8436 17.6434 11.345C16.0636 12.8465 15.1208 14.8974 15.01 17.0741C14.991 17.4586 14.8249 17.8211 14.5461 18.0865C14.2672 18.352 13.897 18.5 13.512 18.5001H12C10.6739 18.5001 9.40215 19.0269 8.46447 19.9646C7.52678 20.9022 7 22.174 7 23.5001C7 24.8262 7.52678 26.0979 8.46447 27.0356C9.40215 27.9733 10.6739 28.5001 12 28.5001H20.8C20.443 29.468 20.2033 30.4752 20.086 31.5001H12C9.87827 31.5001 7.84344 30.6572 6.34315 29.1569C4.84285 27.6567 4 25.6218 4 23.5001C4 21.3784 4.84285 19.3435 6.34315 17.8432C7.84344 16.3429 9.87827 15.5001 12 15.5001H12.174ZM44 33.0001C44 35.9175 42.8411 38.7154 40.7782 40.7783C38.7153 42.8412 35.9174 44.0001 33 44.0001C30.0826 44.0001 27.2847 42.8412 25.2218 40.7783C23.1589 38.7154 22 35.9175 22 33.0001C22 30.0827 23.1589 27.2848 25.2218 25.2219C27.2847 23.159 30.0826 22.0001 33 22.0001C35.9174 22.0001 38.7153 23.159 40.7782 25.2219C42.8411 27.2848 44 30.0827 44 33.0001ZM32 29.4141V39.0001C32 39.2653 32.1054 39.5197 32.2929 39.7072C32.4804 39.8947 32.7348 40.0001 33 40.0001C33.2652 40.0001 33.5196 39.8947 33.7071 39.7072C33.8946 39.5197 34 39.2653 34 39.0001V29.4141L37.292 32.7081C37.4798 32.8959 37.7344 33.0014 38 33.0014C38.2656 33.0014 38.5202 32.8959 38.708 32.7081C38.8958 32.5203 39.0013 32.2656 39.0013 32.0001C39.0013 31.7345 38.8958 31.4799 38.708 31.2921L33.708 26.2921C33.6151 26.199 33.5048 26.1251 33.3833 26.0747C33.2618 26.0243 33.1315 25.9983 33 25.9983C32.8685 25.9983 32.7382 26.0243 32.6167 26.0747C32.4952 26.1251 32.3849 26.199 32.292 26.2921L27.292 31.2921C27.1042 31.4799 26.9987 31.7345 26.9987 32.0001C26.9987 32.2656 27.1042 32.5203 27.292 32.7081C27.4798 32.8959 27.7344 33.0014 28 33.0014C28.2656 33.0014 28.5202 32.8959 28.708 32.7081L32 29.4141Z" fill="#27366D"/>
</svg>
