<svg width="18" height="18" viewBox="0 0 18 18" fill="none" xmlns="http://www.w3.org/2000/svg">
<circle cx="9" cy="9" r="4" fill="white"/>
<path d="M9 1.5C13.1423 1.5 16.5 4.85775 16.5 9C16.5 13.1423 13.1423 16.5 9 16.5C4.85775 16.5 1.5 13.1423 1.5 9C1.5 4.85775 4.85775 1.5 9 1.5ZM11.415 6.7275L8.0625 10.08L6.585 8.6025C6.47837 8.50314 6.33733 8.44905 6.19161 8.45162C6.04588 8.45419 5.90684 8.51322 5.80378 8.61628C5.70072 8.71934 5.64169 8.85838 5.63912 9.00411C5.63655 9.14983 5.69064 9.29087 5.79 9.3975L7.665 11.2725C7.77047 11.3778 7.91344 11.437 8.0625 11.437C8.21156 11.437 8.35453 11.3778 8.46 11.2725L12.21 7.5225C12.2653 7.471 12.3096 7.4089 12.3403 7.3399C12.3711 7.2709 12.3876 7.19642 12.3889 7.12089C12.3903 7.04536 12.3764 6.97034 12.3481 6.9003C12.3198 6.83026 12.2777 6.76664 12.2243 6.71322C12.1709 6.65981 12.1072 6.6177 12.0372 6.58941C11.9672 6.56112 11.8921 6.54722 11.8166 6.54856C11.7411 6.54989 11.6666 6.56642 11.5976 6.59716C11.5286 6.62791 11.4665 6.67224 11.415 6.7275Z" fill="#27366D"/>
</svg>
