<svg width="20" height="20" viewBox="0 0 20 20" fill="none" xmlns="http://www.w3.org/2000/svg">
<path d="M13.0893 3.57797C13.2456 3.73425 13.3333 3.94617 13.3333 4.16714C13.3333 4.38811 13.2456 4.60003 13.0893 4.75631L7.84518 10.0005L13.0893 15.2446C13.1689 15.3215 13.2324 15.4135 13.2761 15.5151C13.3198 15.6168 13.3428 15.7262 13.3437 15.8368C13.3447 15.9475 13.3236 16.0572 13.2817 16.1596C13.2398 16.262 13.1779 16.3551 13.0997 16.4333C13.0214 16.5115 12.9284 16.5734 12.826 16.6153C12.7236 16.6572 12.6138 16.6783 12.5032 16.6773C12.3925 16.6764 12.2832 16.6534 12.1815 16.6097C12.0798 16.566 11.9879 16.5026 11.911 16.423L6.07768 10.5896C5.92145 10.4334 5.83369 10.2214 5.83369 10.0005C5.83369 9.7795 5.92145 9.56758 6.07768 9.41131L11.911 3.57797C12.0673 3.42175 12.2792 3.33398 12.5002 3.33398C12.7211 3.33398 12.9331 3.42175 13.0893 3.57797Z" fill="#222222"/>
</svg>
