<svg width="16" height="16" viewBox="0 0 16 16" fill="none" xmlns="http://www.w3.org/2000/svg">
<path d="M2.86218 5.52867C2.9872 5.40369 3.15674 5.33348 3.33352 5.33348C3.51029 5.33348 3.67983 5.40369 3.80485 5.52867L8.00018 9.724L12.1955 5.52867C12.257 5.46499 12.3306 5.41421 12.4119 5.37927C12.4932 5.34433 12.5807 5.32594 12.6692 5.32517C12.7578 5.3244 12.8456 5.34127 12.9275 5.37479C13.0094 5.40831 13.0839 5.45781 13.1464 5.5204C13.209 5.583 13.2585 5.65743 13.2921 5.73936C13.3256 5.8213 13.3425 5.90908 13.3417 5.9976C13.3409 6.08612 13.3225 6.1736 13.2876 6.25494C13.2526 6.33627 13.2019 6.40984 13.1382 6.47133L8.47152 11.138C8.3465 11.263 8.17696 11.3332 8.00018 11.3332C7.82341 11.3332 7.65387 11.263 7.52885 11.138L2.86218 6.47133C2.7372 6.34632 2.66699 6.17678 2.66699 6C2.66699 5.82322 2.7372 5.65369 2.86218 5.52867Z" fill="#222222"/>
</svg>
