<svg width="24" height="24" viewBox="0 0 24 24" fill="none" xmlns="http://www.w3.org/2000/svg">
<path d="M8 12C8 11.7239 8.22386 11.5 8.5 11.5H11.5V8.5C11.5 8.22386 11.7239 8 12 8C12.2761 8 12.5 8.22386 12.5 8.5V11.5H15.5C15.7761 11.5 16 11.7239 16 12C16 12.2761 15.7761 12.5 15.5 12.5H12.5V15.5C12.5 15.7761 12.2761 16 12 16C11.7239 16 11.5 15.7761 11.5 15.5V12.5H8.5C8.22386 12.5 8 12.2761 8 12ZM12 20C16.4183 20 20 16.4183 20 12C20 7.58172 16.4183 4 12 4C7.58172 4 4 7.58172 4 12C4 16.4183 7.58172 20 12 20ZM12 19C8.13401 19 5 15.866 5 12C5 8.13401 8.13401 5 12 5C15.866 5 19 8.13401 19 12C19 15.866 15.866 19 12 19Z" fill="#27366D"/>
</svg>
