<svg width="28" height="32" viewBox="0 0 28 32" fill="none" xmlns="http://www.w3.org/2000/svg">
<g filter="url(#filter0_d_77_2917)">
<path d="M17.0893 7.57797C17.2456 7.73425 17.3333 7.94617 17.3333 8.16714C17.3333 8.38811 17.2456 8.60003 17.0893 8.75631L11.8452 14.0005L17.0893 19.2446C17.1689 19.3215 17.2324 19.4135 17.2761 19.5151C17.3198 19.6168 17.3428 19.7262 17.3437 19.8368C17.3447 19.9475 17.3236 20.0572 17.2817 20.1596C17.2398 20.262 17.1779 20.3551 17.0997 20.4333C17.0214 20.5115 16.9284 20.5734 16.826 20.6153C16.7236 20.6572 16.6138 20.6783 16.5032 20.6773C16.3925 20.6764 16.2832 20.6534 16.1815 20.6097C16.0798 20.566 15.9879 20.5026 15.911 20.423L10.0777 14.5896C9.92145 14.4334 9.83369 14.2214 9.83369 14.0005C9.83369 13.7795 9.92145 13.5676 10.0777 13.4113L15.911 7.57797C16.0673 7.42175 16.2792 7.33398 16.5002 7.33398C16.7211 7.33398 16.9331 7.42175 17.0893 7.57797Z" fill="#222222"/>
</g>
<defs>
<filter id="filter0_d_77_2917" x="-4" y="0" width="36" height="36" filterUnits="userSpaceOnUse" color-interpolation-filters="sRGB">
<feFlood flood-opacity="0" result="BackgroundImageFix"/>
<feColorMatrix in="SourceAlpha" type="matrix" values="0 0 0 0 0 0 0 0 0 0 0 0 0 0 0 0 0 0 127 0" result="hardAlpha"/>
<feOffset dy="4"/>
<feGaussianBlur stdDeviation="2"/>
<feComposite in2="hardAlpha" operator="out"/>
<feColorMatrix type="matrix" values="0 0 0 0 0 0 0 0 0 0 0 0 0 0 0 0 0 0 0.25 0"/>
<feBlend mode="normal" in2="BackgroundImageFix" result="effect1_dropShadow_77_2917"/>
<feBlend mode="normal" in="SourceGraphic" in2="effect1_dropShadow_77_2917" result="shape"/>
</filter>
</defs>
</svg>
