<svg width="24" height="24" viewBox="0 0 24 24" fill="none" xmlns="http://www.w3.org/2000/svg">
<path d="M12.0081 5.5C12.4975 5.50533 12.9848 5.562 13.4628 5.66867C13.5645 5.69137 13.6566 5.74527 13.7261 5.82284C13.7957 5.90041 13.8393 5.99778 13.8508 6.10133L13.9641 7.11933C13.9801 7.26286 14.0296 7.40062 14.1086 7.52154C14.1875 7.64246 14.2938 7.74315 14.4187 7.81553C14.5437 7.8879 14.6839 7.92993 14.8281 7.93823C14.9722 7.94654 15.1164 7.92088 15.2488 7.86333L16.1828 7.45333C16.2776 7.41157 16.3831 7.40029 16.4846 7.42108C16.5861 7.44186 16.6787 7.49366 16.7495 7.56933C17.4241 8.29006 17.9265 9.15441 18.2188 10.0973C18.2495 10.1964 18.2485 10.3026 18.2162 10.4011C18.1838 10.4997 18.1216 10.5857 18.0381 10.6473L17.2101 11.258C17.0937 11.3435 16.999 11.4553 16.9338 11.5842C16.8685 11.7131 16.8345 11.8555 16.8345 12C16.8345 12.1445 16.8685 12.2869 16.9338 12.4158C16.999 12.5447 17.0937 12.6565 17.2101 12.742L18.0388 13.352C18.1225 13.4136 18.1849 13.4997 18.2174 13.5984C18.2499 13.6971 18.2509 13.8034 18.2201 13.9027C17.9277 14.8455 17.4253 15.7099 16.7508 16.4307C16.6802 16.5062 16.5879 16.5579 16.4867 16.5788C16.3854 16.5997 16.2802 16.5887 16.1855 16.5473L15.2475 16.136C15.1152 16.078 14.9711 16.052 14.8269 16.06C14.6827 16.068 14.5424 16.1099 14.4174 16.1822C14.2924 16.2545 14.1861 16.3552 14.1073 16.4762C14.0284 16.5972 13.9792 16.7351 13.9635 16.8787L13.8508 17.896C13.8394 17.9984 13.7967 18.0948 13.7285 18.1721C13.6602 18.2493 13.5697 18.3035 13.4695 18.3273C12.5038 18.5571 11.4978 18.5571 10.5321 18.3273C10.4319 18.3035 10.3414 18.2493 10.2732 18.1721C10.2049 18.0948 10.1622 17.9984 10.1508 17.896L10.0388 16.88C10.0225 16.7368 9.97277 16.5994 9.89369 16.4789C9.8146 16.3584 9.70835 16.2581 9.58346 16.1861C9.45858 16.1142 9.31854 16.0725 9.17462 16.0645C9.03071 16.0565 8.88691 16.0823 8.75481 16.14L7.81748 16.5507C7.72266 16.5922 7.6173 16.6033 7.51591 16.5824C7.41453 16.5615 7.32214 16.5096 7.25148 16.434C6.57662 15.7124 6.07423 14.8472 5.78214 13.9033C5.75141 13.8041 5.75235 13.6977 5.78485 13.599C5.81735 13.5003 5.87978 13.4142 5.96348 13.3527L6.79214 12.742C6.90871 12.6566 7.0035 12.5448 7.06884 12.4159C7.13419 12.287 7.16824 12.1445 7.16824 12C7.16824 11.8555 7.13419 11.713 7.06884 11.5841C7.0035 11.4552 6.90871 11.3434 6.79214 11.258L5.96348 10.6487C5.8799 10.587 5.8176 10.5009 5.78522 10.4022C5.75285 10.3035 5.752 10.1972 5.78281 10.098C6.07516 9.15508 6.57754 8.29074 7.25214 7.57C7.32293 7.49433 7.41549 7.44252 7.517 7.42174C7.61852 7.40096 7.72398 7.41223 7.81881 7.454L8.75214 7.864C8.88482 7.92151 9.02914 7.94711 9.17351 7.93872C9.31787 7.93034 9.45826 7.88821 9.58339 7.81573C9.70852 7.74324 9.81491 7.64242 9.894 7.52136C9.9731 7.4003 10.0227 7.26237 10.0388 7.11867L10.1521 6.10133C10.1636 5.99757 10.2072 5.89999 10.2769 5.82228C10.3466 5.74456 10.4389 5.69062 10.5408 5.668C11.0188 5.562 11.5075 5.506 12.0081 5.5ZM12.0081 6.5C11.7057 6.50355 11.404 6.52962 11.1055 6.578L11.0328 7.22933C10.9995 7.52904 10.8963 7.81673 10.7314 8.06919C10.5664 8.32165 10.3445 8.53182 10.0834 8.68272C9.82234 8.83363 9.52945 8.92106 9.22837 8.93796C8.9273 8.95486 8.62646 8.90075 8.35014 8.78L7.75148 8.51733C7.37014 8.98008 7.06662 9.50178 6.85281 10.062L7.38481 10.4533C7.62762 10.6318 7.82504 10.8649 7.96111 11.1337C8.09717 11.4026 8.16807 11.6997 8.16807 12.001C8.16807 12.3023 8.09717 12.5994 7.96111 12.8683C7.82504 13.1371 7.62762 13.3702 7.38481 13.5487L6.85214 13.9407C7.06548 14.502 7.36948 15.0247 7.75081 15.4887L8.35414 15.224C8.6298 15.1036 8.92987 15.0497 9.23019 15.0665C9.53051 15.0833 9.8227 15.1703 10.0832 15.3207C10.3437 15.471 10.5653 15.6804 10.7302 15.932C10.895 16.1836 10.9984 16.4704 11.0321 16.7693L11.1055 17.4253C11.6981 17.5253 12.3041 17.5253 12.8968 17.4253L12.9701 16.7693C13.0033 16.4701 13.1064 16.1828 13.2711 15.9307C13.4358 15.6786 13.6574 15.4687 13.9181 15.3181C14.1788 15.1674 14.4713 15.0802 14.7719 15.0634C15.0726 15.0465 15.3729 15.1007 15.6488 15.2213L16.2521 15.4853C16.6333 15.0223 16.9366 14.5004 17.1501 13.94L16.6181 13.548C16.3753 13.3696 16.1779 13.1365 16.0418 12.8676C15.9058 12.5988 15.8349 12.3017 15.8349 12.0003C15.8349 11.699 15.9058 11.4019 16.0418 11.133C16.1779 10.8642 16.3753 10.6311 16.6181 10.4527L17.1488 10.0613C16.935 9.50112 16.6315 8.97941 16.2501 8.51667L15.6528 8.77867C15.3766 8.89957 15.0759 8.95383 14.7749 8.93708C14.4739 8.92032 14.1811 8.83302 13.92 8.68222C13.659 8.53142 13.437 8.32135 13.2722 8.06897C13.1073 7.81659 13.004 7.52897 12.9708 7.22933L12.8975 6.57867C12.6036 6.53062 12.3066 6.50455 12.0088 6.50067L12.0081 6.5ZM12.0001 9.5C12.6632 9.5 13.2991 9.76339 13.7679 10.2322C14.2368 10.7011 14.5001 11.337 14.5001 12C14.5001 12.663 14.2368 13.2989 13.7679 13.7678C13.2991 14.2366 12.6632 14.5 12.0001 14.5C11.3371 14.5 10.7012 14.2366 10.2324 13.7678C9.76354 13.2989 9.50014 12.663 9.50014 12C9.50014 11.337 9.76354 10.7011 10.2324 10.2322C10.7012 9.76339 11.3371 9.5 12.0001 9.5ZM12.0001 10.5C11.6023 10.5 11.2208 10.658 10.9395 10.9393C10.6582 11.2206 10.5001 11.6022 10.5001 12C10.5001 12.3978 10.6582 12.7794 10.9395 13.0607C11.2208 13.342 11.6023 13.5 12.0001 13.5C12.398 13.5 12.7795 13.342 13.0608 13.0607C13.3421 12.7794 13.5001 12.3978 13.5001 12C13.5001 11.6022 13.3421 11.2206 13.0608 10.9393C12.7795 10.658 12.398 10.5 12.0001 10.5Z" fill="black"/>
</svg>
