<svg width="25" height="24" viewBox="0 0 25 24" fill="none" xmlns="http://www.w3.org/2000/svg">
<path d="M17.9385 3L18.1235 3.005C18.9203 3.05037 19.6725 3.38732 20.2369 3.95165C20.8012 4.51597 21.1381 5.26821 21.1835 6.065L21.1885 6.25V17.75L21.1835 17.934C21.1365 18.7628 20.7741 19.5422 20.1707 20.1123C19.5673 20.6824 18.7686 21.0001 17.9385 21H6.4375C5.60736 21.0001 4.80867 20.6824 4.20527 20.1123C3.60187 19.5422 3.2395 18.7628 3.1925 17.934L3.1875 17.75V6.25C3.18745 5.41986 3.50505 4.62117 4.07517 4.01777C4.64529 3.41437 5.42469 3.052 6.2535 3.005L6.4375 3H17.9385ZM19.6875 8H4.6885L4.6875 17.75C4.68752 18.1892 4.85267 18.6123 5.15018 18.9354C5.44769 19.2585 5.8558 19.4579 6.2935 19.494L6.4375 19.5H17.9385L18.0825 19.494C18.4943 19.4601 18.8809 19.2816 19.1738 18.99C19.4666 18.6985 19.6468 18.3127 19.6825 17.901L19.6885 17.75L19.6875 8ZM10.4375 9.5C10.6187 9.50001 10.7938 9.56564 10.9304 9.68477C11.067 9.80389 11.1559 9.96845 11.1805 10.148L11.1875 10.25V17.25C11.1875 17.4312 11.1219 17.6063 11.0027 17.7429C10.8836 17.8795 10.7191 17.9684 10.5395 17.993L10.4375 18H6.9375C6.75626 18 6.58116 17.9344 6.44457 17.8152C6.30798 17.6961 6.21915 17.5316 6.1945 17.352L6.1875 17.25V10.25C6.18751 10.0688 6.25314 9.89366 6.37227 9.75707C6.49139 9.62048 6.65595 9.53165 6.8355 9.507L6.9375 9.5H10.4375ZM9.6875 11H7.6875V16.5H9.6875V11ZM16.4375 12.503C16.6275 12.5031 16.8104 12.5752 16.9493 12.705C17.0881 12.8347 17.1726 13.0123 17.1855 13.2019C17.1985 13.3915 17.139 13.5789 17.0191 13.7263C16.8992 13.8737 16.7277 13.9701 16.5395 13.996L16.4375 14.003H12.9415C12.7516 14.0027 12.5688 13.9303 12.4302 13.8005C12.2915 13.6707 12.2073 13.4931 12.1944 13.3036C12.1816 13.1141 12.2412 12.9268 12.3611 12.7795C12.481 12.6322 12.6523 12.5359 12.8405 12.51L12.9415 12.503H16.4375ZM17.4375 9.5C17.6275 9.50006 17.8104 9.57224 17.9493 9.70197C18.0881 9.8317 18.1726 10.0093 18.1855 10.1989C18.1985 10.3885 18.139 10.5759 18.0191 10.7233C17.8992 10.8707 17.7277 10.9671 17.5395 10.993L17.4375 11H12.9415C12.7516 10.9997 12.5688 10.9273 12.4302 10.7975C12.2915 10.6677 12.2073 10.4901 12.1944 10.3006C12.1816 10.1111 12.2412 9.92381 12.3611 9.77651C12.481 9.62921 12.6523 9.53289 12.8405 9.507L12.9415 9.5H17.4375Z" fill="black"/>
</svg>
