<svg width="24" height="24" viewBox="0 0 24 24" fill="none" xmlns="http://www.w3.org/2000/svg">
<path d="M10.2218 17.9567C7.55468 17.653 6 15.8026 6 14V13.5C6 12.6716 6.67157 12 7.5 12H9.59971C9.43777 12.3168 9.30564 12.6514 9.20703 13H7.5C7.22386 13 7 13.2239 7 13.5V14C7 15.1281 7.88187 16.333 9.50235 16.7996C9.69426 17.216 9.93668 17.6043 10.2218 17.9567ZM13.626 9.06907C13.7066 8.81036 13.75 8.53525 13.75 8.25C13.75 6.73122 12.5188 5.5 11 5.5C9.48122 5.5 8.25 6.73122 8.25 8.25C8.25 9.53662 9.13357 10.6169 10.327 10.9171C10.642 10.5505 11.0045 10.226 11.4048 9.95294C11.2749 9.98371 11.1393 10 11 10C10.0335 10 9.25 9.2165 9.25 8.25C9.25 7.2835 10.0335 6.5 11 6.5C11.9665 6.5 12.75 7.2835 12.75 8.25C12.75 8.73141 12.5556 9.16743 12.241 9.48382C12.6756 9.28783 13.1402 9.14664 13.626 9.06907ZM14.5 19C16.9853 19 19 16.9853 19 14.5C19 12.0147 16.9853 10 14.5 10C12.0147 10 10 12.0147 10 14.5C10 16.9853 12.0147 19 14.5 19ZM14.5 12C14.7761 12 15 12.2239 15 12.5V14H16.5C16.7761 14 17 14.2239 17 14.5C17 14.7761 16.7761 15 16.5 15H15V16.5C15 16.7761 14.7761 17 14.5 17C14.2239 17 14 16.7761 14 16.5V15H12.5C12.2239 15 12 14.7761 12 14.5C12 14.2239 12.2239 14 12.5 14H14V12.5C14 12.2239 14.2239 12 14.5 12Z" fill="black"/>
</svg>
