<svg width="32" height="32" viewBox="0 0 32 32" fill="none" xmlns="http://www.w3.org/2000/svg">
<path d="M23.25 8C23.9793 8 24.6788 8.28973 25.1945 8.80546C25.7103 9.32118 26 10.0207 26 10.75V21.25C26 21.6111 25.9289 21.9687 25.7907 22.3024C25.6525 22.636 25.4499 22.9392 25.1945 23.1945C24.9392 23.4499 24.636 23.6525 24.3024 23.7907C23.9687 23.9289 23.6111 24 23.25 24H8.75C8.38886 24 8.03127 23.9289 7.69762 23.7907C7.36398 23.6525 7.06082 23.4499 6.80546 23.1945C6.5501 22.9392 6.34753 22.636 6.20933 22.3024C6.07113 21.9687 6 21.6111 6 21.25V10.75C6 10.0207 6.28973 9.32118 6.80546 8.80546C7.32118 8.28973 8.02065 8 8.75 8H23.25ZM24.5 10.75C24.5 10.06 23.94 9.5 23.25 9.5H19.996V22.5H23.25C23.94 22.5 24.5 21.94 24.5 21.25V10.75ZM18.496 22.5V9.5H8.75C8.06 9.5 7.5 10.06 7.5 10.75V21.25C7.5 21.94 8.06 22.5 8.75 22.5H18.496Z" fill="#27366D"/>
</svg>
