<svg width="20" height="20" viewBox="0 0 20 20" fill="none" xmlns="http://www.w3.org/2000/svg">
<path d="M10.0003 1.66667C14.6028 1.66667 18.3337 5.3975 18.3337 10C18.3337 14.6025 14.6028 18.3333 10.0003 18.3333C8.67032 18.3352 7.35935 18.0174 6.17783 17.4067L2.9895 18.2958C2.81162 18.3455 2.62373 18.3469 2.4451 18.3001C2.26647 18.2532 2.10351 18.1597 1.97292 18.0291C1.84234 17.8985 1.74881 17.7355 1.70194 17.5569C1.65506 17.3783 1.65652 17.1904 1.70617 17.0125L2.59617 13.8267C1.98396 12.6441 1.66527 11.3316 1.667 10C1.667 5.3975 5.39783 1.66667 10.0003 1.66667ZM10.0003 2.91667C8.12172 2.91667 6.32004 3.66295 4.99166 4.99133C3.66328 6.31971 2.917 8.12138 2.917 10C2.917 11.225 3.22783 12.4025 3.81117 13.4475L3.93617 13.6725L3.0095 16.9925L6.332 16.0658L6.557 16.1908C7.50232 16.7164 8.55545 17.0185 9.63562 17.074C10.7158 17.1295 11.7943 16.9369 12.7885 16.5109C13.7827 16.085 14.6662 15.437 15.3711 14.6167C16.0761 13.7964 16.5838 12.8255 16.8554 11.7786C17.127 10.7316 17.1552 9.63637 16.9379 8.57683C16.7205 7.51728 16.2635 6.52157 15.6017 5.66606C14.9399 4.81054 14.091 4.11793 13.1201 3.64135C12.1491 3.16477 11.0819 2.91688 10.0003 2.91667ZM10.0003 12.9167C10.2213 12.9167 10.4333 13.0045 10.5896 13.1607C10.7459 13.317 10.8337 13.529 10.8337 13.75C10.8337 13.971 10.7459 14.183 10.5896 14.3393C10.4333 14.4955 10.2213 14.5833 10.0003 14.5833C9.77932 14.5833 9.56736 14.4955 9.41108 14.3393C9.2548 14.183 9.167 13.971 9.167 13.75C9.167 13.529 9.2548 13.317 9.41108 13.1607C9.56736 13.0045 9.77932 12.9167 10.0003 12.9167ZM10.0003 5.625C10.6081 5.625 11.191 5.86644 11.6208 6.29621C12.0506 6.72599 12.292 7.30888 12.292 7.91667C12.292 8.75833 12.0445 9.22833 11.4162 9.8825L11.2753 10.025C10.757 10.5433 10.6253 10.7633 10.6253 11.25C10.6253 11.4158 10.5595 11.5747 10.4423 11.6919C10.3251 11.8092 10.1661 11.875 10.0003 11.875C9.83457 11.875 9.6756 11.8092 9.55839 11.6919C9.44118 11.5747 9.37533 11.4158 9.37533 11.25C9.37533 10.4083 9.62283 9.93833 10.2512 9.28417L10.392 9.14167C10.9103 8.62333 11.042 8.40333 11.042 7.91667C11.0411 7.65023 10.9382 7.39425 10.7544 7.20138C10.5706 7.00851 10.3198 6.8934 10.0538 6.87974C9.78766 6.86608 9.52646 6.9549 9.32385 7.12793C9.12124 7.30096 8.99264 7.54505 8.9645 7.81L8.95867 7.91667C8.95867 8.08243 8.89282 8.2414 8.77561 8.35861C8.6584 8.47582 8.49943 8.54167 8.33367 8.54167C8.16791 8.54167 8.00893 8.47582 7.89173 8.35861C7.77451 8.2414 7.70867 8.08243 7.70867 7.91667C7.70867 7.30888 7.95011 6.72599 8.37988 6.29621C8.80965 5.86644 9.39255 5.625 10.0003 5.625Z" fill="#464646"/>
</svg>
