<svg width="25" height="24" viewBox="0 0 25 24" fill="none" xmlns="http://www.w3.org/2000/svg">
<path d="M13.1875 9.12501V10.75H13.9375C14.1033 10.75 14.2623 10.8159 14.3795 10.9331C14.4967 11.0503 14.5625 11.2093 14.5625 11.375C14.5625 11.5408 14.4967 11.6997 14.3795 11.817C14.2623 11.9342 14.1033 12 13.9375 12H12.6875C12.6665 12.0001 12.6455 11.9991 12.6245 11.997C12.5376 12.0058 12.4497 11.9963 12.3667 11.969C12.2836 11.9418 12.2072 11.8974 12.1424 11.8388C12.0775 11.7802 12.0257 11.7086 11.9903 11.6287C11.9548 11.5489 11.9365 11.4624 11.9365 11.375V9.12501C11.9365 8.95912 12.0024 8.80002 12.1197 8.68272C12.237 8.56541 12.3961 8.49951 12.562 8.49951C12.7279 8.49951 12.887 8.56541 13.0043 8.68272C13.1216 8.80002 13.1875 8.95912 13.1875 9.12501Z" fill="#464646"/>
<path d="M12.5625 6.005C11.9387 6.005 11.3211 6.12787 10.7448 6.36658C10.1685 6.60529 9.64482 6.95517 9.20374 7.39625C8.76266 7.83733 8.41278 8.36096 8.17407 8.93726C7.93536 9.51356 7.8125 10.1312 7.8125 10.755C7.8125 11.3788 7.93536 11.9965 8.17407 12.5728C8.41278 13.149 8.76266 13.6727 9.20374 14.1138C9.64482 14.5548 10.1685 14.9047 10.7448 15.1434C11.3211 15.3821 11.9387 15.505 12.5625 15.505C13.8223 15.505 15.0305 15.0046 15.9213 14.1138C16.8121 13.223 17.3125 12.0148 17.3125 10.755C17.3125 9.49523 16.8121 8.28705 15.9213 7.39625C15.0305 6.50545 13.8223 6.005 12.5625 6.005ZM9.0625 10.755C9.0625 9.82675 9.43125 8.93651 10.0876 8.28013C10.744 7.62375 11.6342 7.255 12.5625 7.255C13.4908 7.255 14.381 7.62375 15.0374 8.28013C15.6938 8.93651 16.0625 9.82675 16.0625 10.755C16.0625 11.6833 15.6938 12.5735 15.0374 13.2299C14.381 13.8863 13.4908 14.255 12.5625 14.255C11.6342 14.255 10.744 13.8863 10.0876 13.2299C9.43125 12.5735 9.0625 11.6833 9.0625 10.755Z" fill="#464646"/>
<path d="M6.6875 2C6.02446 2 5.38857 2.26339 4.91973 2.73223C4.45089 3.20107 4.1875 3.83696 4.1875 4.5V19.5C4.1875 20.163 4.45089 20.7989 4.91973 21.2678C5.38857 21.7366 6.02446 22 6.6875 22H19.9375C20.1364 22 20.3272 21.921 20.4678 21.7803C20.6085 21.6397 20.6875 21.4489 20.6875 21.25C20.6875 21.0511 20.6085 20.8603 20.4678 20.7197C20.3272 20.579 20.1364 20.5 19.9375 20.5H6.6875C6.42228 20.5 6.16793 20.3946 5.98039 20.2071C5.79286 20.0196 5.6875 19.7652 5.6875 19.5H19.9375C20.1364 19.5 20.3272 19.421 20.4678 19.2803C20.6085 19.1397 20.6875 18.9489 20.6875 18.75V4.5C20.6875 4.1717 20.6228 3.84661 20.4972 3.54329C20.3716 3.23998 20.1874 2.96438 19.9553 2.73223C19.7231 2.50009 19.4475 2.31594 19.1442 2.1903C18.8409 2.06466 18.5158 2 18.1875 2H6.6875ZM19.1875 18H5.6875V4.5C5.6875 4.23478 5.79286 3.98043 5.98039 3.79289C6.16793 3.60536 6.42228 3.5 6.6875 3.5H18.1875C18.4527 3.5 18.7071 3.60536 18.8946 3.79289C19.0821 3.98043 19.1875 4.23478 19.1875 4.5V18Z" fill="#464646"/>
</svg>
