<svg width="16" height="16" viewBox="0 0 16 16" fill="none" xmlns="http://www.w3.org/2000/svg">
<path d="M13.1378 10.4713C13.0128 10.5963 12.8433 10.6665 12.6665 10.6665C12.4897 10.6665 12.3202 10.5963 12.1952 10.4713L7.99982 6.27595L3.80448 10.4713C3.74299 10.535 3.66942 10.5857 3.58809 10.6207C3.50675 10.6556 3.41927 10.674 3.33075 10.6748C3.24223 10.6755 3.15445 10.6587 3.07251 10.6252C2.99058 10.5916 2.91615 10.5421 2.85355 10.4795C2.79096 10.4169 2.74146 10.3425 2.70794 10.2606C2.67441 10.1787 2.65755 10.0909 2.65832 10.0023C2.65909 9.91383 2.67748 9.82635 2.71242 9.74501C2.74736 9.66367 2.79814 9.59011 2.86182 9.52861L7.52848 4.86195C7.6535 4.73697 7.82304 4.66676 7.99982 4.66676C8.17659 4.66676 8.34613 4.73697 8.47115 4.86195L13.1378 9.52861C13.2628 9.65363 13.333 9.82317 13.333 9.99995C13.333 10.1767 13.2628 10.3463 13.1378 10.4713Z" fill="#222222"/>
</svg>
