<svg width="28" height="28" viewBox="0 0 28 28" fill="none" xmlns="http://www.w3.org/2000/svg">
<path d="M10.9107 20.422C10.7544 20.2658 10.6667 20.0538 10.6667 19.8329C10.6667 19.6119 10.7544 19.4 10.9107 19.2437L16.1548 13.9995L10.9107 8.75536C10.8311 8.67849 10.7676 8.58653 10.7239 8.48486C10.6802 8.38319 10.6572 8.27384 10.6563 8.16319C10.6553 8.05255 10.6764 7.94281 10.7183 7.8404C10.7602 7.73799 10.8221 7.64494 10.9003 7.5667C10.9786 7.48845 11.0716 7.42658 11.174 7.38468C11.2764 7.34277 11.3862 7.32169 11.4968 7.32265C11.6075 7.32361 11.7168 7.3466 11.8185 7.39028C11.9202 7.43395 12.0121 7.49743 12.089 7.57703L17.9223 13.4104C18.0785 13.5666 18.1663 13.7786 18.1663 13.9995C18.1663 14.2205 18.0785 14.4324 17.9223 14.5887L12.089 20.422C11.9327 20.5783 11.7208 20.666 11.4998 20.666C11.2789 20.666 11.0669 20.5783 10.9107 20.422Z" fill="#222222"/>
</svg>
