<svg width="20" height="20" viewBox="0 0 20 20" fill="none" xmlns="http://www.w3.org/2000/svg">
<path d="M10.0003 15.9475C9.78639 16.1749 9.52812 16.356 9.24147 16.4797C8.95482 16.6034 8.64586 16.667 8.33366 16.6667H3.12533C2.73855 16.6667 2.36762 16.513 2.09413 16.2395C1.82064 15.966 1.66699 15.5951 1.66699 15.2083V4.79167C1.66699 3.98667 2.32033 3.33333 3.12533 3.33333H8.33366C8.99033 3.33333 9.58283 3.60917 10.0003 4.0525C10.2143 3.82513 10.4725 3.64401 10.7592 3.52032C11.0458 3.39663 11.3548 3.33299 11.667 3.33333H16.8753C17.6803 3.33333 18.3337 3.98667 18.3337 4.79167V15.2083C18.3337 15.5951 18.18 15.966 17.9065 16.2395C17.633 16.513 17.2621 16.6667 16.8753 16.6667H11.667C11.3548 16.667 11.0458 16.6034 10.7592 16.4797C10.4725 16.356 10.2143 16.1749 10.0003 15.9475ZM2.91699 4.79167V15.2083C2.91699 15.3233 3.01033 15.4167 3.12533 15.4167H8.33366C8.90866 15.4167 9.37533 14.95 9.37533 14.375V5.625C9.37533 5.05 8.90866 4.58333 8.33366 4.58333H3.12533C3.07007 4.58333 3.01708 4.60528 2.97801 4.64435C2.93894 4.68342 2.91699 4.73641 2.91699 4.79167ZM10.6253 14.375C10.6253 14.95 11.092 15.4167 11.667 15.4167H16.8753C16.9306 15.4167 16.9836 15.3947 17.0226 15.3556C17.0617 15.3166 17.0837 15.2636 17.0837 15.2083V4.79167C17.0837 4.73641 17.0617 4.68342 17.0226 4.64435C16.9836 4.60528 16.9306 4.58333 16.8753 4.58333H11.667C11.092 4.58333 10.6253 5.05 10.6253 5.625V14.375Z" fill="#464646"/>
</svg>
