<svg width="32" height="32" viewBox="0 0 32 32" fill="none" xmlns="http://www.w3.org/2000/svg">
<path d="M18.807 13.249C18.674 13.1012 18.4877 13.0122 18.2891 13.0017C18.0905 12.9912 17.8959 13.06 17.748 13.193L15.248 15.443C15.17 15.5133 15.1077 15.5992 15.065 15.6952C15.0223 15.7911 15.0002 15.895 15.0002 16C15.0002 16.105 15.0223 16.2089 15.065 16.3048C15.1077 16.4008 15.17 16.4867 15.248 16.557L17.748 18.807C17.8959 18.9401 18.0905 19.0091 18.2892 18.9987C18.4879 18.9883 18.6744 18.8994 18.8075 18.7515C18.9406 18.6036 19.0096 18.409 18.9992 18.2103C18.9888 18.0116 18.8999 17.8251 18.752 17.692L17.704 16.75H21.25C21.3485 16.75 21.446 16.7306 21.537 16.6929C21.628 16.6552 21.7107 16.6 21.7803 16.5303C21.85 16.4607 21.9052 16.378 21.9429 16.287C21.9806 16.196 22 16.0985 22 16C22 15.9015 21.9806 15.804 21.9429 15.713C21.9052 15.622 21.85 15.5393 21.7803 15.4697C21.7107 15.4 21.628 15.3448 21.537 15.3071C21.446 15.2694 21.3485 15.25 21.25 15.25H17.704L18.752 14.308C18.8997 14.1748 18.9884 13.9885 18.9988 13.7899C19.0091 13.5913 18.9401 13.3967 18.807 13.249ZM6 21.251C6.00027 21.9802 6.29011 22.6794 6.80581 23.1949C7.32151 23.7104 8.02083 24 8.75 24H23.25C23.6111 24 23.9687 23.9289 24.3024 23.7907C24.636 23.6525 24.9392 23.4499 25.1945 23.1945C25.4499 22.9392 25.6525 22.636 25.7907 22.3024C25.9289 21.9687 26 21.6111 26 21.25V10.75C26 10.0207 25.7103 9.32118 25.1945 8.80546C24.6788 8.28973 23.9793 8 23.25 8H8.75C8.02065 8 7.32118 8.28973 6.80546 8.80546C6.28973 9.32118 6 10.0207 6 10.75V21.251ZM8.75 22.501C8.06 22.501 7.5 21.941 7.5 21.251V10.749C7.5 10.059 8.06 9.499 8.75 9.499H12.004V22.5L8.75 22.501ZM13.504 22.501V9.5H23.25C23.94 9.5 24.5 10.06 24.5 10.75V21.25C24.5 21.94 23.94 22.5 23.25 22.5L13.504 22.501Z" fill="#27366D"/>
</svg>
