<svg width="20" height="20" viewBox="0 0 20 20" fill="none" xmlns="http://www.w3.org/2000/svg">
<path d="M6.91066 16.422C6.75443 16.2658 6.66667 16.0538 6.66667 15.8329C6.66667 15.6119 6.75443 15.4 6.91066 15.2437L12.1548 9.99953L6.91066 4.75536C6.83107 4.67849 6.76758 4.58653 6.72391 4.48486C6.68023 4.38319 6.65724 4.27384 6.65628 4.16319C6.65532 4.05255 6.6764 3.94281 6.71831 3.8404C6.76021 3.73799 6.82208 3.64494 6.90033 3.5667C6.97857 3.48845 7.07161 3.42658 7.17403 3.38468C7.27644 3.34277 7.38617 3.32169 7.49682 3.32265C7.60747 3.32361 7.71682 3.3466 7.81849 3.39028C7.92016 3.43395 8.01212 3.49743 8.08899 3.57703L13.9223 9.41036C14.0785 9.56663 14.1663 9.77856 14.1663 9.99953C14.1663 10.2205 14.0785 10.4324 13.9223 10.5887L8.08899 16.422C7.93272 16.5783 7.72079 16.666 7.49982 16.666C7.27885 16.666 7.06693 16.5783 6.91066 16.422Z" fill="#222222"/>
</svg>
