<svg width="20" height="20" viewBox="0 0 20 20" fill="none" xmlns="http://www.w3.org/2000/svg">
<path d="M12.292 12.5C13.097 12.5 13.7503 13.1533 13.7503 13.9583L13.7495 14.76C13.847 16.585 12.4903 17.5075 10.0562 17.5075C7.63116 17.5075 6.25033 16.5992 6.25033 14.7917V13.9583C6.25033 13.1533 6.90366 12.5 7.70866 12.5H12.292ZM12.292 13.75H7.70866C7.65341 13.75 7.60041 13.7719 7.56134 13.811C7.52227 13.8501 7.50033 13.9031 7.50033 13.9583V14.7917C7.50033 15.7717 8.23949 16.2575 10.0562 16.2575C11.8628 16.2575 12.552 15.7875 12.5003 14.7933V13.9583C12.5003 13.9031 12.4784 13.8501 12.4393 13.811C12.4002 13.7719 12.3472 13.75 12.292 13.75ZM3.12533 8.33333H6.77199C6.667 8.74128 6.64013 9.1654 6.69283 9.58333H3.12533C3.07007 9.58333 3.01708 9.60528 2.97801 9.64435C2.93894 9.68342 2.91699 9.73641 2.91699 9.79167V10.625C2.91699 11.605 3.65616 12.0908 5.47283 12.0908C5.85783 12.0908 6.19199 12.0692 6.47866 12.0267C6.00185 12.3287 5.65366 12.7965 5.50116 13.34L5.47283 13.3408C3.04783 13.3408 1.66699 12.4325 1.66699 10.625V9.79167C1.66699 8.98667 2.32033 8.33333 3.12533 8.33333ZM16.8753 8.33333C17.6803 8.33333 18.3337 8.98667 18.3337 9.79167L18.3328 10.5933C18.4303 12.4183 17.0737 13.3408 14.6395 13.3408L14.4987 13.3392C14.3415 12.7809 13.9789 12.3027 13.4837 12.0008C13.8062 12.0608 14.1895 12.0908 14.6395 12.0908C16.4462 12.0908 17.1353 11.6208 17.0837 10.6267V9.79167C17.0837 9.73641 17.0617 9.68342 17.0226 9.64435C16.9836 9.60528 16.9306 9.58333 16.8753 9.58333H13.3087C13.3602 9.16532 13.3331 8.74136 13.2287 8.33333H16.8753ZM10.0003 6.66667C10.3286 6.66667 10.6537 6.73133 10.957 6.85697C11.2603 6.9826 11.5359 7.16675 11.7681 7.3989C12.0002 7.63105 12.1844 7.90664 12.31 8.20996C12.4357 8.51327 12.5003 8.83836 12.5003 9.16667C12.5003 9.49497 12.4357 9.82006 12.31 10.1234C12.1844 10.4267 12.0002 10.7023 11.7681 10.9344C11.5359 11.1666 11.2603 11.3507 10.957 11.4764C10.6537 11.602 10.3286 11.6667 10.0003 11.6667C9.33728 11.6667 8.7014 11.4033 8.23256 10.9344C7.76372 10.4656 7.50033 9.82971 7.50033 9.16667C7.50033 8.50363 7.76372 7.86774 8.23256 7.3989C8.7014 6.93006 9.33728 6.66667 10.0003 6.66667ZM10.0003 7.91667C9.83617 7.91667 9.67363 7.949 9.52197 8.01182C9.37031 8.07464 9.23251 8.16671 9.11644 8.28278C9.00037 8.39886 8.90829 8.53666 8.84548 8.68831C8.78266 8.83997 8.75033 9.00251 8.75033 9.16667C8.75033 9.33082 8.78266 9.49336 8.84548 9.64502C8.90829 9.79668 9.00037 9.93448 9.11644 10.0505C9.23251 10.1666 9.37031 10.2587 9.52197 10.3215C9.67363 10.3843 9.83617 10.4167 10.0003 10.4167C10.3318 10.4167 10.6498 10.285 10.8842 10.0505C11.1186 9.81613 11.2503 9.49819 11.2503 9.16667C11.2503 8.83515 11.1186 8.5172 10.8842 8.28278C10.6498 8.04836 10.3318 7.91667 10.0003 7.91667ZM5.41699 2.5C6.08003 2.5 6.71592 2.76339 7.18476 3.23223C7.6536 3.70107 7.91699 4.33696 7.91699 5C7.91699 5.66304 7.6536 6.29893 7.18476 6.76777C6.71592 7.23661 6.08003 7.5 5.41699 7.5C4.75395 7.5 4.11807 7.23661 3.64923 6.76777C3.18038 6.29893 2.91699 5.66304 2.91699 5C2.91699 4.33696 3.18038 3.70107 3.64923 3.23223C4.11807 2.76339 4.75395 2.5 5.41699 2.5ZM14.5837 2.5C15.2467 2.5 15.8826 2.76339 16.3514 3.23223C16.8203 3.70107 17.0837 4.33696 17.0837 5C17.0837 5.66304 16.8203 6.29893 16.3514 6.76777C15.8826 7.23661 15.2467 7.5 14.5837 7.5C13.9206 7.5 13.2847 7.23661 12.8159 6.76777C12.3471 6.29893 12.0837 5.66304 12.0837 5C12.0837 4.33696 12.3471 3.70107 12.8159 3.23223C13.2847 2.76339 13.9206 2.5 14.5837 2.5ZM5.41699 3.75C5.08547 3.75 4.76753 3.8817 4.53311 4.11612C4.29869 4.35054 4.16699 4.66848 4.16699 5C4.16699 5.33152 4.29869 5.64946 4.53311 5.88388C4.76753 6.1183 5.08547 6.25 5.41699 6.25C5.74851 6.25 6.06646 6.1183 6.30088 5.88388C6.5353 5.64946 6.66699 5.33152 6.66699 5C6.66699 4.66848 6.5353 4.35054 6.30088 4.11612C6.06646 3.8817 5.74851 3.75 5.41699 3.75ZM14.5837 3.75C14.2521 3.75 13.9342 3.8817 13.6998 4.11612C13.4654 4.35054 13.3337 4.66848 13.3337 5C13.3337 5.33152 13.4654 5.64946 13.6998 5.88388C13.9342 6.1183 14.2521 6.25 14.5837 6.25C14.9152 6.25 15.2331 6.1183 15.4675 5.88388C15.702 5.64946 15.8337 5.33152 15.8337 5C15.8337 4.66848 15.702 4.35054 15.4675 4.11612C15.2331 3.8817 14.9152 3.75 14.5837 3.75Z" fill="#464646"/>
</svg>
