<svg width="253" height="63" viewBox="0 0 253 63" fill="none" xmlns="http://www.w3.org/2000/svg">
<path opacity="0.1" fill-rule="evenodd" clip-rule="evenodd" d="M2 42.8673C2 42.8673 11.885 41.4189 23.1236 44.8984C44.4988 51.5161 45.7182 39.3975 53.6443 33.5541C60.8959 28.2081 66.9015 31.4699 74.9756 38.0077C80.9306 42.8296 89.6092 50.9236 98.5969 49.6206C106.813 48.4295 112.637 38.9363 124.025 36.522C133.05 34.6085 140.385 39.8653 150.778 38.0077C164.877 35.4876 171.174 20.6519 181.251 20.6519C193.687 20.6519 202.443 8.10434 213.757 8.10434C225.004 8.10434 226.531 15.4826 238.834 20.6519C248.24 24.6039 252.765 20.6519 252.765 20.6519V63H2V42.8673Z" fill="url(#paint0_linear_98_603)"/>
<path d="M2 36.2897C2 36.2897 11.885 34.8623 23.1236 38.2914C44.4988 44.8133 45.7182 32.8701 53.6443 27.1113C60.8959 21.8426 66.9015 25.0572 74.9756 31.5004C80.9306 36.2525 89.6092 44.2294 98.5969 42.9452C106.813 41.7713 112.637 32.4155 124.025 30.0362C133.05 28.1504 140.385 33.3311 150.778 31.5004C164.877 29.0168 171.174 14.3958 181.251 14.3958C193.687 14.3958 202.443 2 213.757 2C225.004 2 225.602 9.30135 237.905 14.3958C247.311 18.2906 252.765 14.3958 252.765 14.3958" stroke="#27366D" stroke-width="3.6528" stroke-linecap="round" stroke-linejoin="round"/>
<defs>
<linearGradient id="paint0_linear_98_603" x1="47.3198" y1="35.9587" x2="47.3198" y2="63" gradientUnits="userSpaceOnUse">
<stop stop-color="#27366D"/>
<stop offset="1" stop-color="white" stop-opacity="0.01"/>
</linearGradient>
</defs>
</svg>
