<svg width="66" height="24" viewBox="0 0 66 24" fill="none" xmlns="http://www.w3.org/2000/svg">
<rect width="66" height="24" rx="4" fill="#FF2D2D" fill-opacity="0.16"/>
<path d="M11.46 16.5V7.98H12.804V16.5H11.46ZM20.4295 16.5H19.1095V12.984C19.1095 12.4 19.0135 11.972 18.8215 11.7C18.6375 11.428 18.3615 11.292 17.9935 11.292C17.7375 11.292 17.4815 11.356 17.2255 11.484C16.9775 11.612 16.7535 11.788 16.5535 12.012C16.3535 12.228 16.2095 12.48 16.1215 12.768V16.5H14.8015V10.224H16.0015V11.484C16.1615 11.204 16.3695 10.964 16.6255 10.764C16.8895 10.556 17.1855 10.396 17.5135 10.284C17.8415 10.172 18.1895 10.116 18.5575 10.116C18.9335 10.116 19.2415 10.184 19.4815 10.32C19.7295 10.456 19.9215 10.644 20.0575 10.884C20.2015 11.116 20.2975 11.388 20.3455 11.7C20.4015 12.004 20.4295 12.328 20.4295 12.672V16.5ZM21.7457 14.664C21.7457 14.264 21.8577 13.916 22.0817 13.62C22.3137 13.316 22.6297 13.084 23.0297 12.924C23.4297 12.756 23.8937 12.672 24.4217 12.672C24.7017 12.672 24.9857 12.692 25.2737 12.732C25.5697 12.772 25.8297 12.836 26.0537 12.924V12.528C26.0537 12.088 25.9217 11.744 25.6577 11.496C25.3937 11.248 25.0137 11.124 24.5177 11.124C24.1657 11.124 23.8337 11.188 23.5217 11.316C23.2097 11.436 22.8777 11.608 22.5257 11.832L22.0817 10.944C22.4977 10.664 22.9137 10.456 23.3297 10.32C23.7537 10.184 24.1977 10.116 24.6617 10.116C25.5017 10.116 26.1617 10.34 26.6417 10.788C27.1297 11.228 27.3737 11.856 27.3737 12.672V15.012C27.3737 15.164 27.3977 15.272 27.4457 15.336C27.5017 15.4 27.5937 15.436 27.7217 15.444V16.5C27.6017 16.524 27.4937 16.54 27.3977 16.548C27.3017 16.556 27.2217 16.56 27.1577 16.56C26.8777 16.56 26.6657 16.492 26.5217 16.356C26.3777 16.22 26.2937 16.06 26.2697 15.876L26.2337 15.516C25.9617 15.868 25.6137 16.14 25.1897 16.332C24.7657 16.524 24.3377 16.62 23.9057 16.62C23.4897 16.62 23.1177 16.536 22.7897 16.368C22.4617 16.192 22.2057 15.956 22.0217 15.66C21.8377 15.364 21.7457 15.032 21.7457 14.664ZM25.7417 15.048C25.8377 14.944 25.9137 14.84 25.9697 14.736C26.0257 14.632 26.0537 14.54 26.0537 14.46V13.74C25.8297 13.652 25.5937 13.588 25.3457 13.548C25.0977 13.5 24.8537 13.476 24.6137 13.476C24.1337 13.476 23.7417 13.572 23.4377 13.764C23.1417 13.956 22.9937 14.22 22.9937 14.556C22.9937 14.74 23.0417 14.916 23.1377 15.084C23.2417 15.252 23.3857 15.388 23.5697 15.492C23.7617 15.596 23.9977 15.648 24.2777 15.648C24.5657 15.648 24.8417 15.592 25.1057 15.48C25.3697 15.368 25.5817 15.224 25.7417 15.048ZM32.0591 16.62C31.5711 16.62 31.1271 16.536 30.7271 16.368C30.3351 16.192 29.9951 15.952 29.7071 15.648C29.4191 15.344 29.1951 14.996 29.0351 14.604C28.8831 14.212 28.8071 13.796 28.8071 13.356C28.8071 12.764 28.9391 12.224 29.2031 11.736C29.4751 11.248 29.8511 10.856 30.3311 10.56C30.8191 10.264 31.3951 10.116 32.0591 10.116C32.6991 10.116 33.2551 10.26 33.7271 10.548C34.2071 10.828 34.5591 11.204 34.7831 11.676L33.4991 12.084C33.3551 11.82 33.1511 11.616 32.8871 11.472C32.6311 11.32 32.3471 11.244 32.0351 11.244C31.6831 11.244 31.3631 11.336 31.0751 11.52C30.7951 11.696 30.5711 11.944 30.4031 12.264C30.2431 12.576 30.1631 12.94 30.1631 13.356C30.1631 13.756 30.2471 14.12 30.4151 14.448C30.5831 14.768 30.8071 15.024 31.0871 15.216C31.3751 15.4 31.6951 15.492 32.0471 15.492C32.2631 15.492 32.4711 15.456 32.6711 15.384C32.8791 15.304 33.0591 15.2 33.2111 15.072C33.3631 14.936 33.4711 14.788 33.5351 14.628L34.8311 15.012C34.6951 15.324 34.4911 15.6 34.2191 15.84C33.9551 16.08 33.6391 16.272 33.2711 16.416C32.9111 16.552 32.5071 16.62 32.0591 16.62ZM39.6502 16.176C39.5382 16.232 39.3982 16.292 39.2302 16.356C39.0622 16.42 38.8702 16.476 38.6542 16.524C38.4462 16.572 38.2302 16.596 38.0062 16.596C37.7342 16.596 37.4822 16.548 37.2502 16.452C37.0182 16.356 36.8302 16.204 36.6862 15.996C36.5502 15.78 36.4822 15.504 36.4822 15.168V11.244H35.6542V10.224H36.4822V8.16H37.8022V10.224H39.1702V11.244H37.8022V14.748C37.8182 14.964 37.8862 15.124 38.0062 15.228C38.1342 15.332 38.2902 15.384 38.4742 15.384C38.6582 15.384 38.8342 15.352 39.0022 15.288C39.1702 15.224 39.2942 15.172 39.3742 15.132L39.6502 16.176ZM40.8045 16.5V10.224H42.1245V16.5H40.8045ZM40.8045 9.192V7.74H42.1245V9.192H40.8045ZM45.7027 16.5L43.3147 10.224H44.6827L46.4707 15.276L48.2587 10.224H49.5307L47.1427 16.5H45.7027ZM53.3512 16.62C52.8632 16.62 52.4192 16.536 52.0192 16.368C51.6272 16.192 51.2872 15.956 50.9992 15.66C50.7112 15.356 50.4872 15.012 50.3272 14.628C50.1752 14.236 50.0992 13.82 50.0992 13.38C50.0992 12.788 50.2352 12.248 50.5072 11.76C50.7792 11.264 51.1592 10.868 51.6472 10.572C52.1352 10.268 52.7072 10.116 53.3632 10.116C54.0192 10.116 54.5832 10.268 55.0552 10.572C55.5352 10.868 55.9072 11.26 56.1712 11.748C56.4352 12.236 56.5672 12.76 56.5672 13.32C56.5672 13.416 56.5632 13.508 56.5552 13.596C56.5472 13.676 56.5392 13.744 56.5312 13.8H51.5032C51.5272 14.168 51.6272 14.492 51.8032 14.772C51.9872 15.044 52.2192 15.26 52.4992 15.42C52.7792 15.572 53.0792 15.648 53.3992 15.648C53.7512 15.648 54.0832 15.56 54.3952 15.384C54.7152 15.208 54.9312 14.976 55.0432 14.688L56.1712 15.012C56.0352 15.316 55.8272 15.592 55.5472 15.84C55.2752 16.08 54.9512 16.272 54.5752 16.416C54.1992 16.552 53.7912 16.62 53.3512 16.62ZM51.4672 12.924H55.2592C55.2352 12.564 55.1312 12.248 54.9472 11.976C54.7712 11.696 54.5432 11.48 54.2632 11.328C53.9912 11.168 53.6872 11.088 53.3512 11.088C53.0232 11.088 52.7192 11.168 52.4392 11.328C52.1672 11.48 51.9432 11.696 51.7672 11.976C51.5912 12.248 51.4912 12.564 51.4672 12.924Z" fill="#EB5757"/>
</svg>
