<svg width="25" height="24" viewBox="0 0 25 24" fill="none" xmlns="http://www.w3.org/2000/svg">
<path d="M4.4375 4C3.84076 4 3.26847 4.23705 2.84651 4.65901C2.42455 5.08097 2.1875 5.65326 2.1875 6.25V8.75C2.1875 9.34674 2.42455 9.91903 2.84651 10.341C3.26847 10.7629 3.84076 11 4.4375 11H6.9375C7.53424 11 8.10653 10.7629 8.52849 10.341C8.95045 9.91903 9.1875 9.34674 9.1875 8.75V6.25C9.1875 5.65326 8.95045 5.08097 8.52849 4.65901C8.10653 4.23705 7.53424 4 6.9375 4H4.4375ZM3.6875 6.25C3.6875 6.05109 3.76652 5.86032 3.90717 5.71967C4.04782 5.57902 4.23859 5.5 4.4375 5.5H6.9375C7.13641 5.5 7.32718 5.57902 7.46783 5.71967C7.60848 5.86032 7.6875 6.05109 7.6875 6.25V8.75C7.6875 8.94891 7.60848 9.13968 7.46783 9.28033C7.32718 9.42098 7.13641 9.5 6.9375 9.5H4.4375C4.23859 9.5 4.04782 9.42098 3.90717 9.28033C3.76652 9.13968 3.6875 8.94891 3.6875 8.75V6.25ZM11.4375 5C11.2386 5 11.0478 5.07902 10.9072 5.21967C10.7665 5.36032 10.6875 5.55109 10.6875 5.75C10.6875 5.94891 10.7665 6.13968 10.9072 6.28033C11.0478 6.42098 11.2386 6.5 11.4375 6.5H21.4375C21.6364 6.5 21.8272 6.42098 21.9678 6.28033C22.1085 6.13968 22.1875 5.94891 22.1875 5.75C22.1875 5.55109 22.1085 5.36032 21.9678 5.21967C21.8272 5.07902 21.6364 5 21.4375 5H11.4375ZM11.4375 8C11.2386 8 11.0478 8.07902 10.9072 8.21967C10.7665 8.36032 10.6875 8.55109 10.6875 8.75C10.6875 8.94891 10.7665 9.13968 10.9072 9.28033C11.0478 9.42098 11.2386 9.5 11.4375 9.5H18.4375C18.6364 9.5 18.8272 9.42098 18.9678 9.28033C19.1085 9.13968 19.1875 8.94891 19.1875 8.75C19.1875 8.55109 19.1085 8.36032 18.9678 8.21967C18.8272 8.07902 18.6364 8 18.4375 8H11.4375ZM4.4375 13C3.84076 13 3.26847 13.2371 2.84651 13.659C2.42455 14.081 2.1875 14.6533 2.1875 15.25V17.75C2.1875 18.0455 2.2457 18.3381 2.35877 18.611C2.47184 18.884 2.63758 19.1321 2.84651 19.341C3.05544 19.5499 3.30348 19.7157 3.57646 19.8287C3.84944 19.9418 4.14203 20 4.4375 20H6.9375C7.23297 20 7.52556 19.9418 7.79854 19.8287C8.07152 19.7157 8.31956 19.5499 8.52849 19.341C8.73742 19.1321 8.90316 18.884 9.01623 18.611C9.1293 18.3381 9.1875 18.0455 9.1875 17.75V15.25C9.1875 14.6533 8.95045 14.081 8.52849 13.659C8.10653 13.2371 7.53424 13 6.9375 13H4.4375ZM3.6875 15.25C3.6875 15.0511 3.76652 14.8603 3.90717 14.7197C4.04782 14.579 4.23859 14.5 4.4375 14.5H6.9375C7.13641 14.5 7.32718 14.579 7.46783 14.7197C7.60848 14.8603 7.6875 15.0511 7.6875 15.25V17.75C7.6875 17.9489 7.60848 18.1397 7.46783 18.2803C7.32718 18.421 7.13641 18.5 6.9375 18.5H4.4375C4.23859 18.5 4.04782 18.421 3.90717 18.2803C3.76652 18.1397 3.6875 17.9489 3.6875 17.75V15.25ZM11.4375 14C11.2386 14 11.0478 14.079 10.9072 14.2197C10.7665 14.3603 10.6875 14.5511 10.6875 14.75C10.6875 14.9489 10.7665 15.1397 10.9072 15.2803C11.0478 15.421 11.2386 15.5 11.4375 15.5H21.4375C21.6364 15.5 21.8272 15.421 21.9678 15.2803C22.1085 15.1397 22.1875 14.9489 22.1875 14.75C22.1875 14.5511 22.1085 14.3603 21.9678 14.2197C21.8272 14.079 21.6364 14 21.4375 14H11.4375ZM11.4375 17C11.2386 17 11.0478 17.079 10.9072 17.2197C10.7665 17.3603 10.6875 17.5511 10.6875 17.75C10.6875 17.9489 10.7665 18.1397 10.9072 18.2803C11.0478 18.421 11.2386 18.5 11.4375 18.5H18.4375C18.6364 18.5 18.8272 18.421 18.9678 18.2803C19.1085 18.1397 19.1875 17.9489 19.1875 17.75C19.1875 17.5511 19.1085 17.3603 18.9678 17.2197C18.8272 17.079 18.6364 17 18.4375 17H11.4375Z" fill="#464646"/>
</svg>
