<svg width="20" height="20" viewBox="0 0 20 20" fill="none" xmlns="http://www.w3.org/2000/svg">
<path d="M10.6254 16.6667C10.6254 16.8324 10.5596 16.9914 10.4424 17.1086C10.3252 17.2258 10.1662 17.2917 10.0004 17.2917C9.83467 17.2917 9.6757 17.2258 9.55849 17.1086C9.44128 16.9914 9.37543 16.8324 9.37543 16.6667V8.95833H5.00043C4.87689 8.95822 4.75616 8.9215 4.65348 8.85282C4.5508 8.78414 4.47078 8.68657 4.42352 8.57243C4.37626 8.45829 4.36389 8.33271 4.38796 8.21155C4.41203 8.09038 4.47146 7.97907 4.55876 7.89166L9.55876 2.89166C9.67595 2.77462 9.8348 2.70888 10.0004 2.70888C10.1661 2.70888 10.3249 2.77462 10.4421 2.89166L15.4421 7.89166C15.5294 7.97907 15.5888 8.09038 15.6129 8.21155C15.637 8.33271 15.6246 8.45829 15.5773 8.57243C15.5301 8.68657 15.4501 8.78414 15.3474 8.85282C15.2447 8.9215 15.124 8.95822 15.0004 8.95833H10.6254V16.6667Z" fill="#27AE60"/>
</svg>
